<?xml version="1.0" standalone="no"?>
<!DOCTYPE svg PUBLIC "-//W3C//DTD SVG 20010904//EN"
 "http://www.w3.org/TR/2001/REC-SVG-20010904/DTD/svg10.dtd">
<svg version="1.0" xmlns="http://www.w3.org/2000/svg"
 width="855.000000pt" height="855.000000pt" viewBox="0 0 855.000000 855.000000"
 preserveAspectRatio="xMidYMid meet">

<g transform="translate(0.000000,855.000000) scale(0.100000,-0.100000)"
fill="#4DB6AC" stroke="none">
<path d="M2347 7866 c-58 -21 -114 -62 -147 -108 -53 -73 -60 -117 -60 -375
l0 -233 -387 0 c-409 1 -452 -3 -586 -49 -153 -53 -318 -171 -422 -304 -76
-95 -154 -247 -187 -362 l-23 -80 -3 -2320 c-2 -1603 1 -2342 8 -2390 16 -103
70 -254 126 -348 69 -116 229 -274 349 -345 101 -59 232 -105 350 -122 58 -8
842 -10 2915 -8 2661 3 2839 4 2899 21 175 48 317 127 443 246 139 131 232
285 280 463 l23 83 0 2355 0 2355 -23 85 c-79 299 -290 540 -576 659 -137 57
-189 62 -617 61 l-388 0 -3 252 -3 253 -27 52 c-138 260 -488 216 -563 -72
-11 -44 -15 -112 -15 -272 l0 -213 -1480 0 -1480 0 0 235 c0 213 -2 239 -21
290 -56 151 -239 242 -382 191z m-187 -1756 c50 -130 170 -208 305 -198 113
10 201 74 254 188 25 53 26 62 29 278 l3 222 1479 0 1479 0 3 -227 c3 -227 3
-228 30 -280 39 -73 78 -114 140 -149 47 -26 62 -29 138 -29 70 0 93 4 130 24
61 32 107 76 138 136 27 49 27 53 30 285 l3 235 372 -5 372 -5 66 -32 c82 -41
150 -111 192 -201 l32 -67 3 -2265 c3 -2095 2 -2270 -14 -2328 -33 -125 -136
-237 -257 -279 -50 -17 -182 -18 -2857 -18 -2675 0 -2807 1 -2857 18 -108 38
-205 134 -250 247 -17 43 -18 163 -17 2330 l0 2285 23 58 c29 73 73 131 136
179 95 71 98 72 505 78 l365 5 6 -225 c4 -151 10 -237 19 -260z"/>
<path d="M4094 5556 c-33 -12 -76 -33 -95 -46 -97 -69 -1619 -1291 -1646
-1323 -45 -51 -79 -113 -97 -176 -14 -48 -16 -155 -16 -866 0 -895 -1 -876 63
-984 42 -69 106 -126 187 -165 l65 -31 598 -3 597 -3 0 584 c0 553 1 585 18
600 17 15 64 17 470 17 l451 0 15 -22 c14 -20 16 -93 16 -600 l0 -578 579 0
c552 0 582 1 644 20 120 37 217 131 270 261 l22 54 3 780 c2 509 -1 808 -8
860 -12 94 -51 184 -106 245 -46 52 -1611 1306 -1675 1343 -105 61 -246 74
-355 33z"/>
</g>
</svg>
